# xmcd CD database file
#
# Track frame offsets:
#	150
#	19237
#	34211
#	51791
#	72265
#	86177
#	100911
#	119322
#	137913
#	149462
#	163081
#	180675
#
# Disc length: 2766 seconds
#
# Revision: 0
# Processed by: cddbd v1.5.2PL0 Copyright (c) Steve Scherf et al.
# Submitted via: CDex 1.70beta2
#
DISCID=b00acc0c
DTITLE=Rascal Flatts - Melt [Bonus Track]
DYEAR=1900
DGENRE=Country
TTITLE0=These Days
TTITLE1=Too Good Is True
TTITLE2=I Melt
TTITLE3=Mayberry
TTITLE4=Love You Out Loud
TTITLE5=Dry Country Girl
TTITLE6=Like I Am
TTITLE7=You
TTITLE8=Falli'n Upside Down
TTITLE9=Shine On
TTITLE10=My Worst Fear
TTITLE11=These Days (Live)
EXTD=
EXTT0=
EXTT1=
EXTT2=
EXTT3=
EXTT4=
EXTT5=
EXTT6=
EXTT7=
EXTT8=
EXTT9=
EXTT10=
EXTT11=
PLAYORDER=
